{
  "title": "San.Andreas.2015.CAM.HQ-Mic.XVID.AC3.Hive-CM8",
  "uid": 11977291,
  "size": 1614877992,
  "categoryP": "video",
  "categoryS": "movies",
  "magnet": "?xt=urn:btih:96988d9ab36e21204449256839657a0fd1d01d56&amp;dn=San.Andreas.2015.CAM.HQ-Mic.XVID.AC3.Hive-CM8&amp;tr=udp%3A%2F%2Ftracker.openbittorrent.com%3A80&amp;tr=udp%3A%2F%2Fopen.demonii.com%3A1337&amp;tr=udp%3A%2F%2Ftracker.coppersurfer.tk%3A6969&amp;tr=udp%3A%2F%2Fexodus.desync.com%3A6969",
  "seeders": 56,
  "leechers": 15,
  "uploader": "xxxlavalxxx",
  "files": 4,
  "time": 1433066525,
  "description": " &lt;a href=&quot;http://extraimago.com/image/TLI&quot; rel=&quot;nofollow&quot; target=&quot;_NEW&quot;&gt;http://extraimago.com/image/TLI&lt;/a&gt;\n &lt;a href=&quot;\nhttp://www.imdb.com/title/tt2126355/&quot; rel=&quot;nofollow&quot; target=&quot;_NEW&quot;&gt;\nhttp://www.imdb.com/title/tt2126355/&lt;/a&gt;\n\n\nIn the aftermath of a massive earthquake in California, a rescue-chopper pilot makes a dangerous journey across the state in order to rescue his daughter.\n\nDirector: Brad Peyton\nWriters: Carlton Cuse (screenplay), Andre Fabrizio (story)\nStars: Dwayne Johnson, Carla Gugino, Alexandra Daddario \nGenres: Action | Drama | Thriller\nCountry: USA\nLanguage: English\n\n\nSan.Andreas.2015.CAM.HQ-Mic.XVID.AC3.Hive-CM8\n\nThx Hive\n\nCM8 Doing It Right The First Time\n\nSources:\n\nVideo: Russian/Spanish Cam\nAudio: HQMic CherryBomb Big Thanks m8\n\nNotes:\n\nhad the spanish cam since yesterday, cam itself was ok for first cam, looks similar to the first avenger cam that was out\nhad slight movement here and there nothing unusual, needed perspective and tilting\nWhile i was trying to fix the video, the russian had already fixed everything, except the flicker, it looked nice\nso thx to the russian, saved me hours of work\n\nEncode:\n\ntook the russian video, fixed colours, brightness,contrast and removed flickering, the rest seemed just fine\n\ngot that nice cam audio from CherryBomb, thx again\naudio was straight and clear, you can understand everything thats said,effects are also nice and balanced\nran it through my usual cleaning process and started syncing\nit was a pita i can tell you that, took me 6h but its all lipsync now\n\nvideo was complete, audio was full, nothing was cut out, its all there from start till beginning of endcredits\n\ngot very nice\nwill do me till either web-dl hits or rental, but i doubt this will happen within the next 3 weeks\ntill than it will do just fine\n\nenjoy\n\nVideo: 720x304 @bitrate 1700 2pass\nAudio: HQMic Stereo 2.0\nSample: yes included &lt;a href=&quot;\nhttp://www.imdb.com/title/tt2126355/&quot; rel=&quot;nofollow&quot; target=&quot;_NEW&quot;&gt;\nhttp://www.imdb.com/title/tt2126355/&lt;/a&gt;\n\nGeneral\nComplete name: San.Andreas.2015.CAM.HQ-Mic.XVID.AC3.Hive-CM8.avi\nFormat: AVI\nFormat/Info: Audio Video Interleave\nFile size: 1.48 GiB\nDuration: 1h 47mn\nOverall bit rate: 1 967 Kbps\nWriting application: Nandub v1.0rc2\nWriting library: Nandub build 1853/release\n\nVideo\nID: 0\nFormat: MPEG-4 Visual\nFormat profile: Advanced Simple@L5\nFormat settings, BVOP: 2\nFormat settings, QPel: Yes\nFormat settings, GMC: No warppoints\nFormat settings, Matrix: Default (H.263)\nMuxing mode: Packed bitstream\nCodec ID: XVID\nCodec ID/Hint: XviD\nDuration: 1h 47mn\nBit rate: 1 700 Kbps\nWidth: 720 pixels\nHeight: 304 pixels\nDisplay aspect ratio: 2.35:1\nFrame rate: 29.970 fps\nColor space: YUV\nChroma subsampling: 4:2:0\nBit depth: 8 bits\nScan type: Progressive\nCompression mode: Lossy\nBits/(Pixel*Frame): 0.259\nStream size: 1.28 GiB (86%)\nWriting library: XviD 1.2.1 (UTC 2008-12-04)\n\nAudio\nID: 1\nFormat: AC-3\nFormat/Info: Audio Coding 3\nMode extension: CM (complete main)\nFormat settings, Endianness: Big\nCodec ID: 2000\nDuration: 1h 47mn\nBit rate mode: Constant\nBit rate: 256 Kbps\nChannel(s): 2 channels\nChannel positions: Front: L R\nSampling rate: 48.0 KHz\nBit depth: 16 bits\nCompression mode: Lossy\nStream size: 197 MiB (13%)\nAlignment: Split accross interleaves\nInterleave, duration: 33 ms (1.00 video frame)\nInterleave, preload duration: 500 ms\n\n &lt;a href=&quot;\nhttp://extraimago.com/image/TLd&quot; rel=&quot;nofollow&quot; target=&quot;_NEW&quot;&gt;\nhttp://extraimago.com/image/TLd&lt;/a&gt; &lt;a href=&quot;\nhttp://extraimago.com/image/TLh&quot; rel=&quot;nofollow&quot; target=&quot;_NEW&quot;&gt;\nhttp://extraimago.com/image/TLh&lt;/a&gt; &lt;a href=&quot;\nhttp://extraimago.com/image/TLb&quot; rel=&quot;nofollow&quot; target=&quot;_NEW&quot;&gt;\nhttp://extraimago.com/image/TLb&lt;/a&gt; &lt;a href=&quot;\nhttp://extraimago.com/image/TL3&quot; rel=&quot;nofollow&quot; target=&quot;_NEW&quot;&gt;\nhttp://extraimago.com/image/TL3&lt;/a&gt;",
  "parsed": {
    "xt": "urn:btih:96988d9ab36e21204449256839657a0fd1d01d56",
    "dn": "San.Andreas.2015.CAM.HQ-Mic.XVID.AC3.Hive-CM8",
    "tr": [
      "udp://exodus.desync.com:6969",
      "udp://open.demonii.com:1337",
      "udp://tracker.coppersurfer.tk:6969",
      "udp://tracker.openbittorrent.com:80"
    ],
    "infoHash": "96988d9ab36e21204449256839657a0fd1d01d56",
    "infoHashBuffer": {
      "type": "Buffer",
      "data": [
        150,
        152,
        141,
        154,
        179,
        110,
        33,
        32,
        68,
        73,
        37,
        104,
        57,
        101,
        122,
        15,
        209,
        208,
        29,
        86
      ]
    },
    "name": "San.Andreas.2015.CAM.HQ-Mic.XVID.AC3.Hive-CM8",
    "announce": [
      "udp://exodus.desync.com:6969",
      "udp://open.demonii.com:1337",
      "udp://tracker.coppersurfer.tk:6969",
      "udp://tracker.openbittorrent.com:80"
    ],
    "urlList": []
  },
  "previous": 71,
  "peers": 93,
  "last_updated": "2016-12-25T08:28:22.055Z"
}